HIERARCHY
ROOT Hips
{
	OFFSET 0.00000 0.00000 0.00000
	CHANNELS 6 Xposition Yposition Zposition Zrotation Yrotation Xrotation 
	JOINT LHipJoint
	{
		OFFSET 0 0 0
		CHANNELS 3 Zrotation Yrotation Xrotation
		JOINT LeftHip
		{
			OFFSET 1.39187 -1.60231 0.69152
			CHANNELS 3 Zrotation Yrotation Xrotation
			JOINT LeftKnee
			{
				OFFSET 2.43314 -6.68499 0.00000
				CHANNELS 3 Zrotation Yrotation Xrotation
				JOINT LeftAnkle
				{
					OFFSET 2.32059 -6.37578 0.00000
					CHANNELS 3 Zrotation Yrotation Xrotation
					JOINT LeftToe
					{
						OFFSET 0.23021 -0.63250 1.71305
						CHANNELS 3 Zrotation Yrotation Xrotation
						End Site
						{
							OFFSET 0.00000 -0.00000 0.91647
						}
					}
				}
			}
		}
	}
	JOINT RHipJoint
	{
		OFFSET 0 0 0
		CHANNELS 3 Zrotation Yrotation Xrotation
		JOINT RightHip
		{
			OFFSET -1.19407 -1.60231 0.69152
			CHANNELS 3 Zrotation Yrotation Xrotation
			JOINT RightKnee
			{
				OFFSET -2.44411 -6.71513 0.00000
				CHANNELS 3 Zrotation Yrotation Xrotation
				JOINT RightAnkle
				{
					OFFSET -2.31924 -6.37207 0.00000
					CHANNELS 3 Zrotation Yrotation Xrotation
					JOINT RightToe
					{
						OFFSET -0.19473 -0.53502 1.87724
						CHANNELS 3 Zrotation Yrotation Xrotation
						End Site
						{
							OFFSET -0.00000 -0.00000 0.98293
						}
					}
				}
			}
		}
	}
	JOINT lowerback
	{
		OFFSET 0 0 0
		CHANNELS 3 Zrotation Yrotation Xrotation
		JOINT Chest
		{
			OFFSET -0.01120 1.87307 0.09613
			CHANNELS 3 Zrotation Yrotation Xrotation
			JOINT Chest2
			{
				OFFSET 0.01099 1.87818 0.04834
				CHANNELS 3 Zrotation Yrotation Xrotation
				JOINT lowerneck
				{
					OFFSET 0 0 0
					CHANNELS 3 Zrotation Yrotation Xrotation
					JOINT Neck
					{
						OFFSET 0.01702 1.40324 -0.12579
						CHANNELS 3 Zrotation Yrotation Xrotation
						JOINT Head
						{
							OFFSET -0.04239 1.38587 -0.01614
							CHANNELS 3 Zrotation Yrotation Xrotation
							End Site
							{
								OFFSET -0.02510 1.47031 -0.00154
							}
						}
					}
				}
				JOINT LeftCollar
				{
					OFFSET 0 0 0
					CHANNELS 3 Zrotation Yrotation Xrotation
					JOINT LeftShoulder
					{
						OFFSET 2.95699 0.62343 0.11653
CHANNELS 3 Zrotation Xrotation Yrotation
						JOINT LeftElbow
						{
OFFSET 0 -4.683820 -0.000000
CHANNELS 3 Zrotation Xrotation Yrotation
							JOINT LeftWrist
							{
OFFSET 0 -2.981240 -0.000000
CHANNELS 3 Zrotation Xrotation Yrotation
								JOINT lhand
								{
									OFFSET 0 0 0
CHANNELS 3 Zrotation Xrotation Yrotation
									JOINT LFingers
									{
OFFSET 0 -0.707590 0.000000
CHANNELS 3 Zrotation Xrotation Yrotation
										End Site
										{
OFFSET 0 -0.570480 0.000000
										}
									}
								}
								JOINT LThumb
								{
OFFSET 0 0.000000 0.000000
CHANNELS 3 Zrotation Xrotation Yrotation
									End Site
									{
OFFSET 0 -0.579190 0.579190
									}
								}
							}
						}
					}
				}
				JOINT RightCollar
				{
					OFFSET 0 0 0
					CHANNELS 3 Zrotation Yrotation Xrotation
					JOINT RightShoulder
					{
						OFFSET -2.99027 0.88714 -0.02793
CHANNELS 3 Zrotation Xrotation Yrotation
						JOINT RightElbow
						{
OFFSET 0 -4.758760 -0.000000
CHANNELS 3 Zrotation Xrotation Yrotation
							JOINT RightWrist
							{
OFFSET 0 -2.932930 -0.000000
CHANNELS 3 Zrotation Xrotation Yrotation
								JOINT rhand
								{
									OFFSET 0 0 0
CHANNELS 3 Zrotation Xrotation Yrotation
									JOINT RFingers
									{
OFFSET 0 -0.831750 0.000000
CHANNELS 3 Zrotation Xrotation Yrotation
										End Site
										{
OFFSET 0 -0.670580 0.000000
										}
									}
								}
								JOINT RThumb
								{
OFFSET 0 0.000000 0.000000
CHANNELS 3 Zrotation Xrotation Yrotation
									End Site
									{
OFFSET 0 -0.680820 0.680820
									}
								}
							}
						}
					}
				}
			}
		}
	}
}
MOTION
Frames: 7
Frame Time: 0.008333333333333333
18.430000 16.609100 14.813100 -177.211000 7.297900 -161.463000 0.000000 0.000000 0.000000 -15.127900 -18.310100 -16.715300 1.951400 8.764100 25.060000 1.726200 -2.117300 -24.267000 0.169400 2.651800 7.310900 0.000000 0.000000 0.000000 16.651200 19.877400 -17.354200 -1.027500 -6.447900 18.089800 1.161700 -19.233200 -12.305900 -0.375600 3.936200 -10.897400 -1.672400 0.124500 -15.524100 1.358800 1.024800 -5.084500 2.574500 0.806900 3.257000 -1.579600 0.326100 4.578400 3.371900 0.485100 -2.592700 1.315200 0.196300 -1.604100 -0.000000 0.000000 0.000000 -3.823500 -16.767400 -23.763000 14.904500 -24.012900 3.187000 5.958400 24.676500 -21.780500 0.000000 0.000000 0.000000 -7.125000 0.000000 0.000000 -22.638200 50.445000 3.179800 -0.000000 0.000000 0.000000 0.707100 2.058700 -6.456200 -9.529900 -16.000900 -1.342500 -9.749100 31.162500 -10.508200 0.000000 0.000000 0.000000 7.125000 0.000000 -0.000000 12.211400 19.441300 7.624500
18.504362 16.605072 14.762234 -177.055115 7.165686 -161.558569 0.000000 0.000000 0.000000 -14.767407 -18.231690 -16.258803 1.935836 8.731091 24.957703 1.763779 -2.135149 -24.533231 0.196941 2.857425 7.881989 0.000000 0.000000 0.000000 16.926058 21.853378 -16.018251 -1.012102 -6.401010 17.952503 1.380868 -20.861987 -13.365822 -0.206285 2.923799 -8.066557 -1.492912 0.130929 -15.917834 1.344348 1.030166 -5.112839 2.467864 0.815062 3.440219 -1.615456 0.433448 4.117298 3.125689 0.599715 -1.746188 1.233162 0.266202 -1.253451 0.000000 0.000000 0.000000 -3.614961 -14.307207 -21.499880 13.973268 -22.696445 2.817849 7.384202 26.998609 -21.960354 0.000000 0.000000 0.000000 -7.125000 0.000000 0.000000 -21.399432 50.835852 3.202480 0.000000 0.000000 0.000000 0.684626 2.378422 -11.386496 -8.972386 -15.116385 -1.192951 -8.744089 35.098015 -10.466566 0.000000 0.000000 0.000000 7.125000 0.000000 0.000000 12.916273 19.523957 8.062867
18.587134 16.600136 14.711072 -177.195710 7.277886 -161.817763 0.000000 0.000000 0.000000 -14.832767 -18.979666 -15.333651 1.930682 8.720244 24.924004 1.784060 -1.000080 -24.979686 0.176273 2.704397 7.456750 0.000000 0.000000 0.000000 17.143114 21.487903 -15.548871 -1.001221 -6.367483 17.854374 1.220486 -19.981681 -13.908249 -0.186091 2.778332 -7.662212 -1.706184 0.081986 -16.082060 1.239888 1.014184 -5.153695 2.479222 0.810486 3.484302 -1.990132 0.388181 3.417106 3.444037 0.520220 -0.820972 1.394333 0.236805 -0.844230 0.000000 0.000000 0.000000 -3.579186 -11.703046 -17.554510 12.588068 -20.680441 2.305862 7.279817 29.904994 -22.052179 0.000000 0.000000 0.000000 -7.125000 0.000000 0.000000 -21.543676 50.904458 3.263869 0.000000 0.000000 0.000000 0.648621 3.081568 -12.645399 -8.737565 -14.741300 -1.132401 -9.433197 35.102433 -9.838361 0.000000 0.000000 0.000000 7.125000 0.000000 0.000000 12.470947 20.117030 7.600971
18.640719 16.591796 14.672149 -177.355227 7.219396 -161.947093 0.000000 0.000000 0.000000 -14.903584 -19.151101 -15.001267 1.949527 8.760090 25.047617 1.807423 -0.769261 -25.213364 0.178768 2.723368 7.509559 0.000000 0.000000 0.000000 17.325649 21.233830 -15.171904 -0.982053 -6.307931 17.680648 1.293791 -20.226665 -12.915865 -0.326351 3.670223 -10.150819 -1.577159 0.123558 -16.155606 1.094404 1.072453 -5.244496 2.263831 0.846634 3.429801 -2.321089 0.269972 3.094238 3.620049 0.346479 -0.253777 1.507952 0.156093 -0.610099 0.000000 0.000000 0.000000 -3.969928 -9.358784 -11.209722 10.888379 -18.116458 1.741438 6.067868 34.745444 -21.480875 0.000000 0.000000 0.000000 -7.125000 0.000000 0.000000 -22.385742 50.185830 2.992047 0.000000 0.000000 0.000000 0.944975 3.510646 -16.327282 -8.886686 -14.979618 -1.170622 -9.043113 36.936442 -9.985369 0.000000 0.000000 0.000000 7.125000 0.000000 0.000000 12.736175 19.986874 7.809180
18.716503 16.585324 14.628242 -177.193287 7.045496 -161.694414 0.000000 0.000000 0.000000 -14.424296 -18.261987 -15.471897 1.953624 8.768801 25.074708 1.835638 -1.233541 -25.278814 0.096280 2.000637 5.507565 0.000000 0.000000 0.000000 17.743755 21.771881 -15.056861 -0.986256 -6.321161 17.719296 1.354315 -20.709344 -13.419531 -0.268965 3.335342 -9.213907 -1.570336 -0.156527 -16.812522 1.270323 0.733880 -5.285754 2.395984 0.690568 3.749344 -2.781054 0.606900 2.456864 4.006539 0.783780 0.473324 1.705585 0.384093 -0.296172 0.000000 0.000000 0.000000 -4.092286 -7.233405 -2.207744 9.006473 -15.170225 1.202315 7.910406 41.840532 -22.216186 0.000000 0.000000 0.000000 -7.125000 0.000000 0.000000 -21.034149 51.158224 3.315652 0.000000 0.000000 0.000000 0.444948 4.010651 -13.778814 -8.885482 -14.977751 -1.170331 -10.296036 32.767109 -9.210572 0.000000 0.000000 0.000000 7.125000 0.000000 0.000000 11.898585 20.706350 7.074649
18.786647 16.580340 14.579434 -177.394426 7.622782 -161.901778 0.000000 0.000000 0.000000 -14.719188 -18.249182 -14.650351 1.914924 8.686555 24.819746 1.835226 -0.549938 -25.476603 0.108272 2.121350 5.841213 0.000000 0.000000 0.000000 17.923720 20.763172 -15.181540 -1.028683 -6.451515 18.100354 1.079469 -19.050177 -13.854846 -0.326591 3.673043 -10.158718 -1.666012 0.001856 -16.869421 0.926937 0.989903 -5.408049 2.136682 0.823730 3.642110 -2.123062 0.620554 2.745745 3.765170 0.820182 0.581245 1.511637 0.405507 -0.306838 0.000000 0.000000 0.000000 -3.750010 -5.048727 10.827781 7.211819 -12.266889 0.776582 8.250848 53.273437 -23.086109 0.000000 0.000000 0.000000 -7.125000 0.000000 0.000000 -21.160333 52.025612 3.800843 0.000000 0.000000 0.000000 0.536117 5.766876 -8.032361 -9.935088 -16.636276 -1.457766 -10.130401 25.815111 -8.286237 0.000000 0.000000 0.000000 7.125000 0.000000 0.000000 12.074424 21.629628 6.924374
18.857629 16.575588 14.529102 -177.474007 7.674380 -162.058980 0.000000 0.000000 0.000000 -14.618309 -20.402534 -13.208374 1.884593 8.621366 24.618011 1.829419 1.181539 -26.026794 0.231588 3.095371 8.544413 0.000000 0.000000 0.000000 18.232996 20.533340 -14.986810 -1.062026 -6.551895 18.394476 1.041789 -18.899488 -14.217394 -0.276804 3.383569 -9.348492 -1.793491 -0.129500 -17.186715 0.788252 0.850272 -5.359146 2.042573 0.751020 3.869529 -2.176643 0.651949 2.786575 4.161894 0.868441 0.632739 1.647052 0.430909 -0.302591 0.000000 0.000000 0.000000 -3.769871 -3.811661 36.744423 5.738966 -9.825850 0.494026 8.081903 77.149020 -23.628061 0.000000 0.000000 0.000000 -7.125000 0.000000 0.000000 -21.610782 52.501038 4.146847 0.000000 0.000000 0.000000 0.818904 6.264366 -8.105295 -10.535986 -17.573497 -1.633083 -10.005060 25.017953 -9.196209 0.000000 0.000000 0.000000 7.125000 0.000000 0.000000 12.105818 20.731371 7.196351
